<?xml version="1.0" encoding="UTF-8" standalone="no"?>
<!-- Created with Inkscape (http://www.inkscape.org/) -->

<svg
   xmlns:dc="http://purl.org/dc/elements/1.1/"
   xmlns:cc="http://creativecommons.org/ns#"
   xmlns:rdf="http://www.w3.org/1999/02/22-rdf-syntax-ns#"
   xmlns:svg="http://www.w3.org/2000/svg"
   xmlns="http://www.w3.org/2000/svg"
   xmlns:sodipodi="http://sodipodi.sourceforge.net/DTD/sodipodi-0.dtd"
   xmlns:inkscape="http://www.inkscape.org/namespaces/inkscape"
   width="167.53513"
   height="167.53513"
   viewBox="0 0 44.327003 44.327004"
   version="1.1"
   id="svg8"
   inkscape:version="0.92.2 (5c3e80d, 2017-08-06)"
   sodipodi:docname="icon.svg"
   style="enable-background:new"
   inkscape:export-filename="C:\Users\z3pr4h\Development\pumper-diary-app\resources\src\icon.png"
   inkscape:export-xdpi="586.84375"
   inkscape:export-ydpi="586.84375">
  <sodipodi:namedview
     id="base"
     pagecolor="#ffffff"
     bordercolor="#666666"
     borderopacity="1.0"
     inkscape:pageopacity="0.0"
     inkscape:pageshadow="2"
     inkscape:zoom="2.8284271"
     inkscape:cx="73.372286"
     inkscape:cy="74.158881"
     inkscape:document-units="mm"
     inkscape:current-layer="layer1"
     showgrid="false"
     inkscape:window-width="1634"
     inkscape:window-height="1018"
     inkscape:window-x="2567"
     inkscape:window-y="0"
     inkscape:window-maximized="0"
     fit-margin-top="0"
     fit-margin-left="0"
     fit-margin-right="0"
     fit-margin-bottom="0"
     units="px" />
  <defs
     id="defs2">
    <inkscape:path-effect
       vertical="false"
       scale_y_rel="false"
       prop_scale="1.05"
       bendpath="M 24.054256,73.295406 H 34.477769"
       is_visible="true"
       id="path-effect3702"
       effect="bend_path" />
    <filter
       id="filter6080"
       style="color-interpolation-filters:sRGB"
       inkscape:collect="always">
      <feBlend
         id="feBlend6082"
         in2="BackgroundImage"
         mode="multiply"
         inkscape:collect="always" />
    </filter>
    <filter
       id="filter6085"
       style="color-interpolation-filters:sRGB"
       inkscape:collect="always">
      <feBlend
         id="feBlend6087"
         in2="BackgroundImage"
         mode="multiply"
         inkscape:collect="always" />
    </filter>
    <filter
       id="filter6090"
       style="color-interpolation-filters:sRGB"
       inkscape:collect="always">
      <feBlend
         id="feBlend6092"
         in2="BackgroundImage"
         mode="multiply"
         inkscape:collect="always" />
    </filter>
    <filter
       id="filter6095"
       style="color-interpolation-filters:sRGB"
       inkscape:collect="always">
      <feBlend
         id="feBlend6097"
         in2="BackgroundImage"
         mode="multiply"
         inkscape:collect="always" />
    </filter>
    <filter
       id="filter6100"
       style="color-interpolation-filters:sRGB"
       inkscape:collect="always">
      <feBlend
         id="feBlend6102"
         in2="BackgroundImage"
         mode="multiply"
         inkscape:collect="always" />
    </filter>
    <filter
       style="color-interpolation-filters:sRGB"
       inkscape:label="Drop Shadow"
       id="filter7699">
      <feFlood
         flood-opacity="1"
         flood-color="rgb(0,0,0)"
         result="flood"
         id="feFlood7689" />
      <feComposite
         in="flood"
         in2="SourceGraphic"
         operator="in"
         result="composite1"
         id="feComposite7691" />
      <feGaussianBlur
         in="composite1"
         stdDeviation="0.5"
         result="blur"
         id="feGaussianBlur7693" />
      <feOffset
         dx="0.7"
         dy="0.7"
         result="offset"
         id="feOffset7695" />
      <feComposite
         in="offset"
         in2="SourceGraphic"
         operator="out"
         result="composite2"
         id="feComposite7697" />
    </filter>
  </defs>
  <metadata
     id="metadata5">
    <rdf:RDF>
      <cc:Work
         rdf:about="">
        <dc:format>image/svg+xml</dc:format>
        <dc:type
           rdf:resource="http://purl.org/dc/dcmitype/StillImage" />
        <dc:title></dc:title>
      </cc:Work>
    </rdf:RDF>
  </metadata>
  <g
     style="display:inline"
     id="layer1"
     inkscape:groupmode="layer"
     inkscape:label="Dumbbell"
     transform="translate(-21.867658,-218.15629)" />
  <circle
     cy="22.257048"
     cx="22.106422"
     id="path6138"
     style="fill:#fdc30f;fill-opacity:1;stroke:#000000;stroke-width:0;stroke-miterlimit:4;stroke-dasharray:none;stroke-opacity:1"
     r="22.1635" />
  <g
     transform="translate(55.593814,-276.39498)"
     inkscape:groupmode="layer"
     id="layer2"
     inkscape:label="Icon" />
  <g
     id="g7120"
     style="fill:#000000;fill-opacity:1;stroke:none"
     transform="translate(-23.893534,-218.06275)">
    <path
       inkscape:connector-curvature="0"
       id="rect6115"
       d="m 34.410818,231.47683 c -0.854937,0 -1.543057,0.77179 -1.543057,1.73064 v 2.97501 c 0,-0.60671 -0.550598,-1.09502 -1.234552,-1.09502 h -1.531172 c -0.683948,0 -1.234549,0.48831 -1.234549,1.09502 v 2.29443 h -2.294435 c -0.390638,0 -0.705382,0.3444 -0.705382,0.77205 v 2.45618 c 0,0.42765 0.314744,0.77205 0.705382,0.77205 h 2.294435 v 2.90473 c 0,0.60671 0.550601,1.09502 1.234549,1.09502 h 1.531172 c 0.683954,0 1.234552,-0.48831 1.234552,-1.09502 v 2.36419 c 0,0.95885 0.68812,1.73065 1.543057,1.73065 h 1.913578 c 0.85494,0 1.543577,-0.7718 1.543577,-1.73065 v -5.26892 h 15.999539 v 5.26892 c 0,0.95885 0.688644,1.73065 1.543574,1.73065 h 1.91358 c 0.85494,0 1.543058,-0.7718 1.543058,-1.73065 v -2.36419 c 0,0.60671 0.550601,1.09502 1.234549,1.09502 h 1.531172 c 0.683951,0 1.234552,-0.48831 1.234552,-1.09502 v -2.90473 h 2.294432 c 0.390641,0 0.705384,-0.3444 0.705384,-0.77205 v -2.45618 c 0,-0.42765 -0.314743,-0.77205 -0.705384,-0.77205 h -2.294432 v -2.29443 c 0,-0.60671 -0.550601,-1.09502 -1.234552,-1.09502 h -1.531172 c -0.683948,0 -1.234549,0.48831 -1.234549,1.09502 v -2.97501 c 0,-0.95885 -0.688118,-1.73064 -1.543058,-1.73064 h -1.91358 c -0.85493,0 -1.543574,0.77179 -1.543574,1.73064 v 5.26944 H 37.867973 v -5.26944 c 0,-0.95885 -0.688637,-1.73064 -1.543577,-1.73064 z"
       style="display:inline;opacity:1;fill:#000000;fill-opacity:1;stroke:none;stroke-width:0.79374999;stroke-miterlimit:4;stroke-dasharray:none;stroke-opacity:1" />
  </g>
  <path
     style="fill:#686868;fill-opacity:0.32119206;stroke:none;stroke-width:0.79374999;stroke-miterlimit:4;stroke-dasharray:none;stroke-opacity:1"
     d="m 10.517285,13.414081 c -0.8549374,0 -1.5430584,0.771792 -1.5430584,1.730642 v 2.557983 l -0.31006,-0.310057 C 8.4383369,17.166819 8.1083519,17.024712 7.739676,17.024712 H 6.2085031 c -0.6839479,0 -1.2345484,0.488315 -1.2345484,1.095023 V 20.41417 H 2.6795198 c -0.3906338,0 -0.7053824,0.344395 -0.7053824,0.772046 v 2.45618 c 0,0.226401 0.088453,0.429527 0.2294435,0.570508 l 2.7703738,2.770372 v 0.335897 c 0,0.27967 0.1169352,0.533958 0.3100572,0.727088 L 21.634436,44.396685 a 22.163499,22.163499 0 0 0 0.471805,0.02376 22.163499,22.163499 0 0 0 22.128366,-21.457605 l -5.570204,-5.570201 c -0.22583,-0.22583 -0.555815,-0.367938 -0.924491,-0.367938 H 37.631909 L 34.458976,13.851768 C 34.186473,13.579268 33.82668,13.41407 33.431133,13.41407 h -1.913581 c -0.854929,0 -1.543573,0.771792 -1.543573,1.730642 v 5.269447 h -9.952882 l -6.561873,-6.561862 c -0.27265,-0.272651 -0.632693,-0.438216 -1.028361,-0.438216 l 1.533239,1.533239 c 0.0065,0.06473 0.01035,0.130664 0.01035,0.197403 v 1.726509 z"
     id="path7003"
     inkscape:connector-curvature="0" />
  <path
     id="rect7414"
     style="display:inline;opacity:1;fill:#808080;stroke:none;stroke-width:0.79374999;stroke-miterlimit:4;stroke-dasharray:none;stroke-opacity:1;filter:url(#filter7699)"
     d="m 10.517348,13.167056 h 1.91358 c 0.854938,0 1.54321,0.77192 1.54321,1.73077 v 14.53846 c 0,0.95884 -0.688272,1.73077 -1.54321,1.73077 h -1.91358 c -0.8549384,0 -1.5432104,-0.77193 -1.5432104,-1.73077 v -14.53846 c 0,-0.95885 0.688272,-1.73077 1.5432104,-1.73077 z m 25.691541,3.61047 h 1.530864 c 0.683951,0 1.234568,0.48844 1.234568,1.09515 v 9.19924 c 0,0.60671 -0.550617,1.09514 -1.234568,1.09514 h -1.530864 c -0.683951,0 -1.234568,-0.48843 -1.234568,-1.09514 v -9.19924 c 0,-0.60671 0.550617,-1.09515 1.234568,-1.09515 z m -4.691541,-3.61047 h 1.91358 c 0.854938,0 1.54321,0.77192 1.54321,1.73077 v 14.53846 c 0,0.95884 -0.688272,1.73077 -1.54321,1.73077 h -1.91358 c -0.854938,0 -1.54321,-0.77193 -1.54321,-1.73077 v -14.53846 c 0,-0.95885 0.688272,-1.73077 1.54321,-1.73077 z m -25.3086419,3.61047 h 1.530864 c 0.6839508,0 1.2345675,0.48844 1.2345675,1.09515 v 9.19924 c 0,0.60671 -0.5506167,1.09514 -1.2345675,1.09514 h -1.530864 c -0.683951,0 -1.234568,-0.48843 -1.234568,-1.09514 v -9.19924 c 0,-0.60671 0.550617,-1.09515 1.234568,-1.09515 z m -3.529441,3.38953 H 41.269011 c 0.39064,0 0.705127,0.34428 0.705127,0.77193 v 2.45614 c 0,0.42765 -0.314487,0.77193 -0.705127,0.77193 H 2.6792651 c -0.39064,0 -0.705127,-0.34428 -0.705127,-0.77193 v -2.45614 c 0,-0.42765 0.314487,-0.77193 0.705127,-0.77193 z"
     inkscape:connector-curvature="0" />
  <g
     style="display:inline"
     id="g6302"
     transform="translate(1.9741381,-265.83295)">
    <g
       inkscape:groupmode="layer"
       id="g6280"
       inkscape:label="Icon" />
    <rect
       style="fill:#4d4d4d;stroke:#000000;stroke-width:0.79374999;stroke-miterlimit:4;stroke-dasharray:none;stroke-opacity:1"
       ry="0.77192825"
       rx="0.70512676"
       y="286"
       x="0"
       height="4"
       width="40"
       id="rect6282" />
    <path
       style="fill:#b3b3b3;stroke:none;stroke-width:3;stroke-miterlimit:4;stroke-dasharray:none;stroke-opacity:1;filter:url(#filter6080)"
       d="m 0,1092.998 v 0.1465 c 0,1.6163 1.1895801,2.918 2.6660156,2.918 H 148.51562 c 1.47644,0 2.66602,-1.3017 2.66602,-2.918 v -0.088 c -0.24414,-0.035 -0.49134,-0.059 -0.74414,-0.059 z"
       id="path6284"
       transform="matrix(0.26458333,0,0,0.41845588,0,-168.65393)"
       inkscape:connector-curvature="0" />
    <rect
       style="display:inline;fill:#999999;stroke:#000000;stroke-width:0.79374999;stroke-miterlimit:4;stroke-dasharray:none;stroke-opacity:1"
       ry="1.0951474"
       rx="1.234568"
       y="282.61047"
       x="3"
       height="11.389532"
       width="4"
       id="rect6286" />
    <rect
       id="rect6288"
       width="5"
       height="18"
       x="28"
       y="279"
       rx="1.54321"
       ry="1.7307693"
       style="display:inline;fill:#808080;stroke:#000000;stroke-width:0.79374999;stroke-miterlimit:4;stroke-dasharray:none;stroke-opacity:1" />
    <rect
       id="rect6290"
       width="4"
       height="11.389532"
       x="33.000183"
       y="282.61047"
       rx="1.234568"
       ry="1.0951474"
       style="display:inline;fill:#999999;stroke:#000000;stroke-width:0.79374999;stroke-miterlimit:4;stroke-dasharray:none;stroke-opacity:1" />
    <rect
       style="display:inline;opacity:1;fill:#808080;stroke:#000000;stroke-width:0.79374999;stroke-miterlimit:4;stroke-dasharray:none;stroke-opacity:1"
       ry="1.7307693"
       rx="1.54321"
       y="279"
       x="7"
       height="18"
       width="5"
       id="rect6292" />
    <path
       style="fill:#b3b3b3;stroke:none;stroke-width:0.76626581;stroke-miterlimit:4;stroke-dasharray:none;stroke-opacity:1;filter:url(#filter6090)"
       d="m 33.000053,289.71822 v 3.46269 c 0,0.56543 0.550598,1.02097 1.234548,1.02097 h 1.531173 c 0.68395,0 1.234551,-0.45554 1.234551,-1.02097 v -3.46269 z"
       id="path6294"
       inkscape:connector-curvature="0" />
    <path
       style="fill:#b3b3b3;stroke:none;stroke-width:0.74723315;stroke-miterlimit:4;stroke-dasharray:none;stroke-opacity:1;filter:url(#filter6095)"
       d="m 27.99984,290.24739 v 5.38848 c 0,0.84976 0.688637,1.53374 1.543577,1.53374 h 1.913578 c 0.854937,0 1.543058,-0.68398 1.543058,-1.53374 v -5.38848 z"
       id="path6296"
       inkscape:connector-curvature="0" />
    <path
       style="fill:#b3b3b3;stroke:none;stroke-width:0.75418037;stroke-miterlimit:4;stroke-dasharray:none;stroke-opacity:1;filter:url(#filter6100)"
       d="m 2.999817,289.71822 v 3.35432 c 0,0.54774 0.5505992,0.98903 1.2345497,0.98903 h 1.5311729 c 0.6839505,0 1.2345498,-0.44129 1.2345498,-0.98903 v -3.35432 z"
       id="path6298"
       inkscape:connector-curvature="0" />
    <path
       style="opacity:1;fill:#b3b3b3;stroke:none;stroke-width:0.75226516;stroke-miterlimit:4;stroke-dasharray:none;stroke-opacity:1;filter:url(#filter6085)"
       d="m 7.0000894,290.24739 v 5.4613 c 0,0.86124 0.6881198,1.55446 1.5430581,1.55446 h 1.9135785 c 0.854938,0 1.543058,-0.69322 1.543058,-1.55446 v -5.4613 z"
       id="path6300"
       inkscape:connector-curvature="0" />
  </g>
  <g
     inkscape:groupmode="layer"
     id="g7402"
     inkscape:label="Icon"
     transform="translate(4.0000142,-265.92649)"
     style="stroke:none" />
</svg>
