<?xml version="1.0" encoding="UTF-8" standalone="no"?>
<!-- Created with Inkscape (http://www.inkscape.org/) -->

<svg
   xmlns:dc="http://purl.org/dc/elements/1.1/"
   xmlns:cc="http://creativecommons.org/ns#"
   xmlns:rdf="http://www.w3.org/1999/02/22-rdf-syntax-ns#"
   xmlns:svg="http://www.w3.org/2000/svg"
   xmlns="http://www.w3.org/2000/svg"
   xmlns:sodipodi="http://sodipodi.sourceforge.net/DTD/sodipodi-0.dtd"
   xmlns:inkscape="http://www.inkscape.org/namespaces/inkscape"
   width="210mm"
   height="210mm"
   viewBox="0 0 210 210"
   version="1.1"
   id="svg8"
   inkscape:version="0.92.2 (5c3e80d, 2017-08-06)"
   sodipodi:docname="icons.svg">
  <defs
     id="defs2" />
  <sodipodi:namedview
     id="base"
     pagecolor="#ffffff"
     bordercolor="#666666"
     borderopacity="1.0"
     inkscape:pageopacity="0.0"
     inkscape:pageshadow="2"
     inkscape:zoom="0.35"
     inkscape:cx="811.06599"
     inkscape:cy="532.12995"
     inkscape:document-units="mm"
     inkscape:current-layer="layer2"
     showgrid="false"
     inkscape:window-width="2560"
     inkscape:window-height="1027"
     inkscape:window-x="1912"
     inkscape:window-y="-8"
     inkscape:window-maximized="1" />
  <metadata
     id="metadata5">
    <rdf:RDF>
      <cc:Work
         rdf:about="">
        <dc:format>image/svg+xml</dc:format>
        <dc:type
           rdf:resource="http://purl.org/dc/dcmitype/StillImage" />
        <dc:title></dc:title>
      </cc:Work>
    </rdf:RDF>
  </metadata>
  <g
     inkscape:label="Layer 1"
     inkscape:groupmode="layer"
     id="layer1"
     transform="translate(0,-87)"
     style="display:none">
    <g
       id="g845"
       transform="matrix(1.2670399,0,0,1.2670399,92.646783,-87.58823)">
      <rect
         ry="6.3973122"
         rx="6.9333353"
         y="177"
         x="30"
         height="60"
         width="35"
         id="rect815"
         style="display:inline;opacity:1;fill:#000000;fill-opacity:1;stroke:none;stroke-width:0.90934289;stroke-linecap:round;stroke-linejoin:round;stroke-miterlimit:4;stroke-dasharray:none;stroke-opacity:1;paint-order:normal" />
      <rect
         style="opacity:1;fill:#000000;fill-opacity:1;stroke:none;stroke-width:0.48606423;stroke-linecap:round;stroke-linejoin:round;stroke-miterlimit:4;stroke-dasharray:none;stroke-opacity:1;paint-order:normal"
         id="rect817"
         width="10"
         height="60"
         x="30"
         y="226.82504"
         rx="4.5264215"
         ry="4.5264215" />
      <rect
         ry="4.5264215"
         rx="4.5264215"
         y="226.82504"
         x="55"
         height="60"
         width="10"
         id="rect827"
         style="opacity:1;fill:#000000;fill-opacity:1;stroke:none;stroke-width:0.48606423;stroke-linecap:round;stroke-linejoin:round;stroke-miterlimit:4;stroke-dasharray:none;stroke-opacity:1;paint-order:normal" />
      <rect
         transform="rotate(-45)"
         ry="3.3948162"
         rx="4.5264215"
         y="112.20678"
         x="-110.00241"
         height="45"
         width="10"
         id="rect829"
         style="opacity:1;fill:#000000;fill-opacity:1;stroke:none;stroke-width:0.42094398;stroke-linecap:round;stroke-linejoin:round;stroke-miterlimit:4;stroke-dasharray:none;stroke-opacity:1;paint-order:normal" />
      <rect
         transform="rotate(45)"
         style="opacity:1;fill:#000000;fill-opacity:1;stroke:none;stroke-width:0.42094398;stroke-linecap:round;stroke-linejoin:round;stroke-miterlimit:4;stroke-dasharray:none;stroke-opacity:1;paint-order:normal"
         id="rect831"
         width="10"
         height="45"
         x="167.17757"
         y="45.031643"
         rx="4.5264215"
         ry="3.3948162" />
      <circle
         r="12.5"
         cy="162"
         cx="47.5"
         id="path1418"
         style="display:inline;opacity:1;fill:#000000;fill-opacity:1;stroke:none;stroke-width:1.16102576;stroke-linecap:round;stroke-linejoin:round;stroke-miterlimit:4;stroke-dasharray:none;stroke-opacity:1;paint-order:normal;enable-background:new" />
    </g>
    <g
       id="g859"
       transform="matrix(1.2670399,0,0,1.2670399,107.49302,-81.146651)"
       style="display:inline">
      <rect
         ry="6.3973122"
         rx="6.9333353"
         y="195.86607"
         x="-58.805435"
         height="60"
         width="35"
         id="rect847"
         style="display:inline;opacity:1;fill:#000000;fill-opacity:1;stroke:none;stroke-width:0.90934289;stroke-linecap:round;stroke-linejoin:round;stroke-miterlimit:4;stroke-dasharray:none;stroke-opacity:1;paint-order:normal" />
      <rect
         transform="matrix(0.70710678,0.70710678,0.70710678,-0.70710678,0,0)"
         ry="3.3948162"
         rx="4.5264215"
         y="-220.84984"
         x="99.709427"
         height="45"
         width="10"
         id="rect849"
         style="opacity:1;fill:#000000;fill-opacity:1;stroke:none;stroke-width:0.42094398;stroke-linecap:round;stroke-linejoin:round;stroke-miterlimit:4;stroke-dasharray:none;stroke-opacity:1;paint-order:normal" />
      <rect
         transform="matrix(0.70710678,-0.70710678,-0.70710678,-0.70710678,0,0)"
         style="opacity:1;fill:#000000;fill-opacity:1;stroke:none;stroke-width:0.42094398;stroke-linecap:round;stroke-linejoin:round;stroke-miterlimit:4;stroke-dasharray:none;stroke-opacity:1;paint-order:normal"
         id="rect851"
         width="10"
         height="45"
         x="-168.12411"
         y="-162.43517"
         rx="4.5264215"
         ry="3.3948162" />
      <circle
         r="12.5"
         cy="180.86607"
         cx="-41.305424"
         id="circle853"
         style="display:inline;opacity:1;fill:#000000;fill-opacity:1;stroke:none;stroke-width:1.16102576;stroke-linecap:round;stroke-linejoin:round;stroke-miterlimit:4;stroke-dasharray:none;stroke-opacity:1;paint-order:normal;enable-background:new" />
      <rect
         ry="3.3948162"
         rx="4.5264215"
         y="36.270832"
         x="-260.40091"
         height="45"
         width="10"
         id="rect866"
         style="opacity:1;fill:#000000;fill-opacity:1;stroke:none;stroke-width:0.42094398;stroke-linecap:round;stroke-linejoin:round;stroke-miterlimit:4;stroke-dasharray:none;stroke-opacity:1;paint-order:normal"
         transform="matrix(0,-1,-1,0,0,0)" />
      <rect
         transform="matrix(-0.70710678,0.70710678,0.70710678,0.70710678,0,0)"
         style="opacity:1;fill:#000000;fill-opacity:1;stroke:none;stroke-width:0.42094398;stroke-linecap:round;stroke-linejoin:round;stroke-miterlimit:4;stroke-dasharray:none;stroke-opacity:1;paint-order:normal"
         id="rect868"
         width="10"
         height="45"
         x="229.84128"
         y="122.92994"
         rx="4.5264215"
         ry="3.3948162" />
      <rect
         transform="rotate(-90)"
         style="opacity:1;fill:#000000;fill-opacity:1;stroke:none;stroke-width:0.42094398;stroke-linecap:round;stroke-linejoin:round;stroke-miterlimit:4;stroke-dasharray:none;stroke-opacity:1;paint-order:normal"
         id="rect872"
         width="10"
         height="45"
         x="-260.40091"
         y="-46.854168"
         rx="4.5264215"
         ry="3.3948162" />
      <rect
         ry="3.3948162"
         rx="4.5264215"
         y="181.70816"
         x="171.06305"
         height="45"
         width="10"
         id="rect874"
         style="display:inline;opacity:1;fill:#000000;fill-opacity:1;stroke:none;stroke-width:0.42094398;stroke-linecap:round;stroke-linejoin:round;stroke-miterlimit:4;stroke-dasharray:none;stroke-opacity:1;paint-order:normal"
         transform="rotate(45)" />
    </g>
  </g>
  <g
     inkscape:groupmode="layer"
     id="layer2"
     inkscape:label="Layer 2"
     style="display:none">
    <path
       style="opacity:1;fill:#000000;fill-opacity:1;stroke:none;stroke-width:1.75731659;stroke-linecap:round;stroke-linejoin:round;stroke-miterlimit:4;stroke-dasharray:none;stroke-opacity:1;paint-order:normal"
       d="m 35.397055,15.908009 c -6.730112,0 -12.147802,6.081298 -12.147802,13.635386 V 196.42994 c 0,7.5541 5.41769,13.6359 12.147802,13.6359 H 174.60199 c 6.73009,0 12.14885,-6.0818 12.14885,-13.6359 V 29.543395 c 0,-7.554088 -5.41876,-13.635386 -12.14885,-13.635386 h -27.59765 v 12.00311 c 0,3.756315 -2.14352,7.048142 -5.4022,8.964047 h 17.96718 c 5.27648,0 9.52434,4.768343 9.52434,10.69085 V 178.40784 c 0,5.92253 -4.24786,10.69033 -9.52434,10.69033 H 50.430779 c -5.276499,0 -9.52486,-4.7678 -9.52486,-10.69033 V 47.566016 c 0,-5.922507 4.248361,-10.69085 9.52486,-10.69085 h 17.967176 c -3.258674,-1.915905 -5.402193,-5.207732 -5.402193,-8.964047 v -12.00311 z"
       id="rect877"
       inkscape:connector-curvature="0" />
    <path
       style="opacity:1;fill:#000000;fill-opacity:1;stroke:none;stroke-width:1.48529494;stroke-linecap:round;stroke-linejoin:round;stroke-miterlimit:4;stroke-dasharray:none;stroke-opacity:1;paint-order:normal"
       d="m 95.882067,3.4776854 c -1.416447,1.4164473 0,6.0094767 0,6.0094767 0,2.7777659 -2.429985,5.0140579 -5.448134,5.0140579 H 65.409056 v 12.738717 c 0,5.781523 5.057487,10.43579 11.339326,10.43579 h 56.502278 c 6.28184,0 11.33932,-4.654267 11.33932,-10.43579 V 14.50122 h -25.02434 c -3.01814,0 -5.44813,-2.236253 -5.44813,-5.0140579 0,0 1.41644,-4.5930294 0,-6.0094767 -4.29814,-4.29813481 -13.93732,-4.29813481 -18.235443,0 z"
       id="rect885"
       inkscape:connector-curvature="0"
       sodipodi:nodetypes="ssscsssscssss" />
    <g
       id="g930"
       transform="matrix(1.0218846,0,0,1.0218846,7.9977119,2.458683)"
       style="stroke:#000000;stroke-opacity:1">
      <path
         style="opacity:1;fill:none;fill-opacity:1;stroke:#000000;stroke-width:20.52283478;stroke-linecap:round;stroke-linejoin:round;stroke-miterlimit:4;stroke-dasharray:none;stroke-opacity:1;paint-order:normal"
         d="m 289.16406,261.49609 c -4.32268,0.20479 -9.05988,2.32747 -12.91211,6.17969 l -2.58789,2.58594 c -6.8484,6.8484 -8.22614,16.49651 -3.08984,21.63281 l 38.52148,38.52149 -38.52148,38.52148 c -5.1363,5.1363 -3.75854,14.78443 3.08984,21.63281 l 2.58789,2.58789 c 6.84841,6.84841 16.49652,8.22615 21.63282,3.08985 l 38.52148,-38.52149 38.52148,38.52149 c 5.13631,5.1363 14.78442,3.75855 21.63282,-3.08985 l 2.58593,-2.58789 c 6.8484,-6.8484 8.22811,-16.4965 3.0918,-21.63281 l -38.52148,-38.52148 38.52148,-38.52149 c 5.1363,-5.1363 3.75661,-14.7844 -3.0918,-21.63281 l -2.58593,-2.58594 c -6.84838,-6.84838 -16.49652,-8.2281 -21.63282,-3.0918 l -38.52148,38.52149 -38.52148,-38.52149 c -2.24714,-2.24713 -5.35862,-3.24717 -8.72071,-3.08789 z"
         transform="matrix(0.25891704,0,0,0.25891704,-10.045722,-5.3650799)"
         id="rect928"
         inkscape:connector-curvature="0" />
    </g>
    <g
       style="stroke:#000000;stroke-opacity:1"
       transform="matrix(1.0218846,0,0,1.0218846,60.336683,40.013985)"
       id="g1037">
      <path
         inkscape:connector-curvature="0"
         id="path1035"
         transform="matrix(0.25891704,0,0,0.25891704,-10.045722,-5.3650799)"
         d="m 289.16406,261.49609 c -4.32268,0.20479 -9.05988,2.32747 -12.91211,6.17969 l -2.58789,2.58594 c -6.8484,6.8484 -8.22614,16.49651 -3.08984,21.63281 l 38.52148,38.52149 -38.52148,38.52148 c -5.1363,5.1363 -3.75854,14.78443 3.08984,21.63281 l 2.58789,2.58789 c 6.84841,6.84841 16.49652,8.22615 21.63282,3.08985 l 38.52148,-38.52149 38.52148,38.52149 c 5.13631,5.1363 14.78442,3.75855 21.63282,-3.08985 l 2.58593,-2.58789 c 6.8484,-6.8484 8.22811,-16.4965 3.0918,-21.63281 l -38.52148,-38.52148 38.52148,-38.52149 c 5.1363,-5.1363 3.75661,-14.7844 -3.0918,-21.63281 l -2.58593,-2.58594 c -6.84838,-6.84838 -16.49652,-8.2281 -21.63282,-3.0918 l -38.52148,38.52149 -38.52148,-38.52149 c -2.24714,-2.24713 -5.35862,-3.24717 -8.72071,-3.08789 z"
         style="opacity:1;fill:none;fill-opacity:1;stroke:#000000;stroke-width:20.52283478;stroke-linecap:round;stroke-linejoin:round;stroke-miterlimit:4;stroke-dasharray:none;stroke-opacity:1;paint-order:normal" />
    </g>
    <g
       style="stroke:#000000;stroke-opacity:1"
       transform="matrix(1.0218846,0,0,1.0218846,-0.86803875,74.254606)"
       id="g1041">
      <path
         inkscape:connector-curvature="0"
         id="path1039"
         transform="matrix(0.25891704,0,0,0.25891704,-10.045722,-5.3650799)"
         d="m 289.16406,261.49609 c -4.32268,0.20479 -9.05988,2.32747 -12.91211,6.17969 l -2.58789,2.58594 c -6.8484,6.8484 -8.22614,16.49651 -3.08984,21.63281 l 38.52148,38.52149 -38.52148,38.52148 c -5.1363,5.1363 -3.75854,14.78443 3.08984,21.63281 l 2.58789,2.58789 c 6.84841,6.84841 16.49652,8.22615 21.63282,3.08985 l 38.52148,-38.52149 38.52148,38.52149 c 5.13631,5.1363 14.78442,3.75855 21.63282,-3.08985 l 2.58593,-2.58789 c 6.8484,-6.8484 8.22811,-16.4965 3.0918,-21.63281 l -38.52148,-38.52148 38.52148,-38.52149 c 5.1363,-5.1363 3.75661,-14.7844 -3.0918,-21.63281 l -2.58593,-2.58594 c -6.84838,-6.84838 -16.49652,-8.2281 -21.63282,-3.0918 l -38.52148,38.52149 -38.52148,-38.52149 c -2.24714,-2.24713 -5.35862,-3.24717 -8.72071,-3.08789 z"
         style="opacity:1;fill:none;fill-opacity:1;stroke:#000000;stroke-width:20.52283478;stroke-linecap:round;stroke-linejoin:round;stroke-miterlimit:4;stroke-dasharray:none;stroke-opacity:1;paint-order:normal" />
    </g>
  </g>
  <g
     inkscape:groupmode="layer"
     id="layer3"
     inkscape:label="Layer 3"
     style="display:inline">
    <g
       id="g999"
       transform="matrix(0.92020495,0,0,0.92020495,-13.16616,-13.544136)">
      <path
         inkscape:connector-curvature="0"
         id="path942"
         d="M 396.84961,56.693359 A 340.15748,340.15748 0 0 0 56.693359,396.84961 340.15748,340.15748 0 0 0 396.84961,737.00781 340.15748,340.15748 0 0 0 737.00781,396.84961 340.15748,340.15748 0 0 0 396.84961,56.693359 Z m 0,54.546871 A 285.60924,285.60924 0 0 1 682.45898,396.84961 285.60924,285.60924 0 0 1 396.84961,682.45898 285.60924,285.60924 0 0 1 111.24023,396.84961 285.60924,285.60924 0 0 1 396.84961,111.24023 Z"
         style="opacity:1;fill:#000000;fill-opacity:1;stroke:none;stroke-width:5.11782265;stroke-linecap:round;stroke-linejoin:round;stroke-miterlimit:4;stroke-dasharray:none;stroke-opacity:1;paint-order:normal"
         transform="scale(0.26458333)" />
      <rect
         ry="9.7800674"
         rx="9.6889086"
         y="30"
         x="96.714645"
         height="75"
         width="16.570711"
         id="rect949"
         style="opacity:1;fill:#000000;fill-opacity:1;stroke:none;stroke-width:1.3291254;stroke-linecap:round;stroke-linejoin:round;stroke-miterlimit:4;stroke-dasharray:none;stroke-opacity:1;paint-order:normal" />
      <rect
         transform="rotate(-45)"
         style="opacity:1;fill:#000000;fill-opacity:1;stroke:none;stroke-width:1.3291254;stroke-linecap:round;stroke-linejoin:round;stroke-miterlimit:4;stroke-dasharray:none;stroke-opacity:1;paint-order:normal"
         id="rect951"
         width="16.570711"
         height="75"
         x="-12.427625"
         y="147.40024"
         rx="9.6889086"
         ry="9.7800674" />
      <circle
         r="20"
         cy="105"
         cx="105"
         id="path993"
         style="opacity:1;fill:#000000;fill-opacity:1;stroke:none;stroke-width:1.79325128;stroke-linecap:round;stroke-linejoin:round;stroke-miterlimit:4;stroke-dasharray:none;stroke-opacity:1;paint-order:normal" />
    </g>
    <g
       id="g1020"
       transform="translate(36.285715,-7.1815479)">
      <rect
         style="display:inline;fill:#fafafa;fill-opacity:1;stroke:#000000;stroke-width:3.37131405;stroke-miterlimit:4;stroke-dasharray:none;stroke-opacity:1;enable-background:new"
         ry="3.27863"
         rx="2.9949024"
         y="168.72752"
         x="3.4640636"
         height="16.9893"
         width="169.89299"
         id="rect5974" />
      <rect
         style="display:inline;fill:#fafafa;fill-opacity:1;stroke:#000000;stroke-width:3.37131405;stroke-miterlimit:4;stroke-dasharray:none;stroke-opacity:1;enable-background:new"
         ry="4.6514463"
         rx="5.2436113"
         y="154.33112"
         x="16.630735"
         height="48.375042"
         width="16.9893"
         id="rect5976" />
      <rect
         id="rect5978"
         width="21.236624"
         height="76.451843"
         x="122.38916"
         y="138.99626"
         rx="6.5545144"
         ry="7.3511391"
         style="display:inline;fill:#fafafa;fill-opacity:1;stroke:#000000;stroke-width:3.37131405;stroke-miterlimit:4;stroke-dasharray:none;stroke-opacity:1;enable-background:new" />
      <rect
         id="rect5980"
         width="16.9893"
         height="48.375042"
         x="143.20103"
         y="154.33112"
         rx="5.2436113"
         ry="4.6514463"
         style="display:inline;fill:#fafafa;fill-opacity:1;stroke:#000000;stroke-width:3.37131405;stroke-miterlimit:4;stroke-dasharray:none;stroke-opacity:1;enable-background:new" />
      <rect
         style="display:inline;opacity:1;fill:#fafafa;fill-opacity:1;stroke:#000000;stroke-width:3.37131405;stroke-miterlimit:4;stroke-dasharray:none;stroke-opacity:1;enable-background:new"
         ry="7.3511391"
         rx="6.5545144"
         y="138.99626"
         x="33.195339"
         height="76.451843"
         width="21.236624"
         id="rect5982" />
    </g>
  </g>
</svg>
