<svg version="1.1" xmlns="http://www.w3.org/2000/svg" xmlns:xlink="http://www.w3.org/1999/xlink" width="48" height="48"><defs><linearGradient x1="5.2618" y1="15.56782" x2="63.9514" y2="53.64538" gradientUnits="userSpaceOnUse" id="color-1"><stop offset="0" stop-color="#000000" stop-opacity="0.3"></stop><stop offset="1" stop-color="#000000" stop-opacity="0"></stop></linearGradient><filter id="dropshadow-base"><feColorMatrix type="matrix" values="0 0 0 0 0  0 0 0 0 0  0 0 0 0 0  0 0 0 .8 0"></feColorMatrix> <feOffset dx="0" dy="1"></feOffset> <feGaussianBlur stdDeviation="1"></feGaussianBlur> <feComposite in="SourceGraphic"></feComposite></filter><filter id="dropshadow-banner" x="-10%" y="-10%" width="120%" height="130%"><feColorMatrix type="matrix" values="0 0 0 0 0  0 0 0 0 0  0 0 0 0 0  0 0 0 .4 0"></feColorMatrix> <feOffset dx="0" dy="1"></feOffset> <feGaussianBlur stdDeviation="0.5"></feGaussianBlur> <feComposite in="SourceGraphic"></feComposite></filter></defs><g fill="none" fill-rule="nonzero" stroke="none" stroke-width="none" stroke-linecap="butt" stroke-linejoin="miter" stroke-miterlimit="none" stroke-dasharray="" stroke-dashoffset="0" font-family="none" font-weight="none" font-size="none" text-anchor="none" style="mix-blend-mode: normal"><path d="M2,24c0,-12.15026 9.84974,-22 22,-22c12.15026,0 22,9.84974 22,22c0,12.15026 -9.84974,22 -22,22c-12.15026,0 -22,-9.84974 -22,-22z" id="base 1 25" fill="#fdc30f" stroke="none" stroke-width="1" stroke-miterlimit="10"></path><path d="M5.2618,25.15057v-2.30118c0,-0.39942 0.29578,-0.72322 0.66063,-0.72322h2.1501v-2.14963c0,-0.56668 0.51787,-1.02605 1.15667,-1.02605h1.43428c0.34443,0 0.65369,0.13354 0.86558,0.34543l0.29109,0.29109v-2.39763c0,-0.89557 0.64733,-1.62157 1.44586,-1.62157h1.79285c0.36933,0 0.70631,0.1553 0.96186,0.41086c0,0 0,0 0,0l6.14751,6.14751h9.32704v-4.9368c0,-0.89557 0.64733,-1.62157 1.44586,-1.62157h1.79285c0.36933,0 0.70631,0.1553 0.96186,0.41086l2.97184,2.97184h0.10328c0.34443,0 0.65369,0.13354 0.86558,0.34543l6.30602,6.30602c-0.79537,11.05263 -9.75576,19.8439 -20.88016,20.37283l-16.69878,-16.69878c-0.18111,-0.18111 -0.29109,-0.41947 -0.29109,-0.68062l0,-0.31519l-2.59552,-2.59552c-0.13225,-0.13225 -0.21521,-0.32258 -0.21521,-0.53412z" fill="url(#color-1)" stroke="none" stroke-width="1" stroke-miterlimit="10"></path><path d="M5.92244,25.87382c-0.36486,0 -0.66064,-0.3238 -0.66064,-0.72323v-2.30119c0,-0.39943 0.29578,-0.72323 0.66064,-0.72323h2.15009v-2.14963c0,-0.56667 0.51786,-1.02605 1.15668,-1.02605h1.43428c0.63882,0 1.15668,0.45938 1.15668,1.02605v-2.78717c0,-0.89557 0.64733,-1.62158 1.44585,-1.62158h1.79285c0.79852,0 1.44585,0.726 1.44585,1.62158l0,4.9368h14.99056v-4.9368c0,-0.89557 0.64733,-1.62158 1.44585,-1.62158h1.79285c0.79852,0 1.44585,0.726 1.44585,1.62158v4.9368h0.00017v-2.14963c0,-0.56667 0.51786,-1.02605 1.15668,-1.02605h1.43428c0.63882,0 1.15668,0.45938 1.15668,1.02605v2.14963h2.14992c0.36486,0 0.66064,0.3238 0.66064,0.72323v2.30119c0,0.39943 -0.29578,0.72323 -0.66064,0.72323h-2.14992v2.72159c0,0.56667 -0.51786,1.02605 -1.15668,1.02605h-1.43428c-0.63882,0 -1.15668,-0.45938 -1.15668,-1.02605v-2.72159h-0.00017v4.9368c0,0.89557 -0.64733,1.62158 -1.44585,1.62158h-1.79285c-0.79852,0 -1.44585,-0.726 -1.44585,-1.62158l0,-4.9368h-14.99056v4.9368c0,0.89557 -0.64733,1.62158 -1.44585,1.62158h-1.79285c-0.79852,0 -1.44585,-0.726 -1.44585,-1.62158v-2.21521c0,0.56667 -0.51786,1.02605 -1.15668,1.02605h-1.43428c-0.63882,0 -1.15668,-0.45938 -1.15668,-1.02605l0,-2.72159z" id="rect5974 1 1" fill="none" stroke="#000000" stroke-width="0" stroke-miterlimit="4"></path><g id="svg8 7"><g id="layer1 1" stroke-miterlimit="4"><path d="M5.92244,25.87382c-0.36486,0 -0.66064,-0.3238 -0.66064,-0.72323v-2.30119c0,-0.39943 0.29578,-0.72323 0.66064,-0.72323h36.15512c0.36486,0 0.66064,0.3238 0.66064,0.72323v2.30119c0,0.39943 -0.29578,0.72323 -0.66064,0.72323z" id="rect5974 1" fill="#4d4d4d" stroke="#000000" stroke-width="0.79375"></path><path d="M42.36674,24.67199l-36.73335,0.0005v0.47835c0,0.21837 0.14152,0.3515 0.28904,0.3515h36.15526c0.14752,0 0.28904,-0.13314 0.28904,-0.3515z" id="rect3764 1" fill-opacity="0.19178" fill="#000000" stroke="none" stroke-width="3.77281"></path><path d="M9.22921,29.62146c-0.63882,0 -1.15668,-0.45938 -1.15668,-1.02605v-8.61886c0,-0.56667 0.51786,-1.02605 1.15668,-1.02605h1.43428c0.63882,0 1.15668,0.45938 1.15668,1.02605v8.61886c0,0.56667 -0.51786,1.02605 -1.15668,1.02605z" id="rect5976 1" fill="#999999" stroke="#000000" stroke-width="0.79375"></path><path d="M32.94113,32.43219c-0.79852,0 -1.44585,-0.726 -1.44585,-1.62158v-13.62123c0,-0.89557 0.64733,-1.62158 1.44585,-1.62158h1.79285c0.79852,0 1.44585,0.726 1.44585,1.62158v13.62123c0,0.89557 -0.64733,1.62158 -1.44585,1.62158z" id="rect5978 1" fill="#808080" stroke="#000000" stroke-width="0.79375"></path><path d="M37.33668,29.62146c-0.63882,0 -1.15668,-0.45938 -1.15668,-1.02605v-8.61886c0,-0.56667 0.51786,-1.02605 1.15668,-1.02605h1.43428c0.63882,0 1.15668,0.45938 1.15668,1.02605v8.61886c0,0.56667 -0.51786,1.02605 -1.15668,1.02605z" id="rect5980 1" fill="#999999" stroke="#000000" stroke-width="0.79375"></path><path d="M13.26602,32.43219c-0.79852,0 -1.44585,-0.726 -1.44585,-1.62158v-13.62123c0,-0.89557 0.64733,-1.62158 1.44585,-1.62158h1.79285c0.79852,0 1.44585,0.726 1.44585,1.62158v13.62123c0,0.89557 -0.64733,1.62158 -1.44585,1.62158z" id="rect5982 1" fill="#808080" stroke="#000000" stroke-width="0.79375"></path><path d="M36.55147,25.60981v2.98486c0,0.34346 0.32105,0.65555 0.78482,0.65555h1.43457c0.46377,0 0.78531,-0.31209 0.78531,-0.65555v-2.98486z" id="rect4680 1" fill-opacity="0.19178" fill="#000000" stroke="none" stroke-width="2.89612"></path><path d="M31.86673,26.10559v4.70508c0,0.72042 0.49717,1.25011 1.07435,1.25011h1.79334c0.57718,0 1.07387,-0.52969 1.07387,-1.25011v-4.70508z" id="rect4678 1" fill-opacity="0.19178" fill="#000000" stroke="none" stroke-width="2.82419"></path><path d="M8.44395,25.60981v2.98486c0,0.34346 0.32154,0.65555 0.78531,0.65555h1.43457c0.46377,0 0.78483,-0.31209 0.78483,-0.65555v-2.98486z" id="rect3708-4-4 1" fill-opacity="0.19178" fill="#000000" stroke="none" stroke-width="2.85045"></path><path d="M12.19185,26.10559v4.70508c0,0.72042 0.49669,1.25011 1.07387,1.25011h1.79333c0.57718,0 1.07435,-0.52969 1.07435,-1.25011v-4.70508z" id="rect3708 1" fill-opacity="0.19178" fill="#000000" stroke="none" stroke-width="2.84321"></path></g><g id="layer2 1" fill="#000000" stroke="none" stroke-width="1" stroke-miterlimit="10" font-family="Roboto, sans-serif" font-weight="normal" font-size="14" text-anchor="start"></g><g id="g7402 1" fill="#000000" stroke="none" stroke-width="1" stroke-miterlimit="10" font-family="Roboto, sans-serif" font-weight="normal" font-size="14" text-anchor="start"></g></g><path d="M2,24c0,-12.15026 9.84974,-22 22,-22c12.15026,0 22,9.84974 22,22c0,12.15026 -9.84974,22 -22,22c-12.15026,0 -22,-9.84974 -22,-22z" id="base 1 21 1" fill="none" stroke="none" stroke-width="1" stroke-miterlimit="10"></path><path d="M2,24c0,-12.15026 9.84974,-22 22,-22c12.15026,0 22,9.84974 22,22c0,12.15026 -9.84974,22 -22,22c-12.15026,0 -22,-9.84974 -22,-22z" id="base 1 17 1" fill="none" stroke="none" stroke-width="1" stroke-miterlimit="10"></path><path d="M2,24c0,-12.15026 9.84974,-22 22,-22c12.15026,0 22,9.84974 22,22c0,12.15026 -9.84974,22 -22,22c-12.15026,0 -22,-9.84974 -22,-22z" id="base 1 13 1" fill="none" stroke="none" stroke-width="1" stroke-miterlimit="10"></path><path d="M2,24c0,-12.15026 9.84974,-22 22,-22c12.15026,0 22,9.84974 22,22c0,12.15026 -9.84974,22 -22,22c-12.15026,0 -22,-9.84974 -22,-22z" id="base 1 9 1" fill="none" stroke="none" stroke-width="1" stroke-miterlimit="10"></path><path d="M2,24c0,-12.15026 9.84974,-22 22,-22c12.15026,0 22,9.84974 22,22c0,12.15026 -9.84974,22 -22,22c-12.15026,0 -22,-9.84974 -22,-22z" id="base 1 5 1" fill="none" stroke="none" stroke-width="1" stroke-miterlimit="10"></path><path d="M2,24c0,-12.15026 9.84974,-22 22,-22c12.15026,0 22,9.84974 22,22c0,12.15026 -9.84974,22 -22,22c-12.15026,0 -22,-9.84974 -22,-22z" id="base 1 1 1" fill="none" stroke="none" stroke-width="1" stroke-miterlimit="10"></path><g id="svg8 1 1" fill="#000000" stroke="none" stroke-width="1" stroke-miterlimit="10" font-family="Roboto, sans-serif" font-weight="normal" font-size="14" text-anchor="start"><g id="layer1 1 1"><g id="g6012 1 1"></g></g><g id="layer2 1 1"></g><g id="g7120 1 1"></g><g id="g6302 1 1"><g id="g6280 1 1"></g></g><g id="g7402 1 1"></g></g><rect x="2" y="2" width="44" height="22" fill="none" stroke="none" stroke-width="1" stroke-miterlimit="10"></rect><path d="M2,24v-22h44v22z" fill="none" stroke="none" stroke-width="1" stroke-miterlimit="10"></path><path d="M2,24v-22h44v22z" fill="none" stroke="none" stroke-width="1" stroke-miterlimit="10"></path><path d="M2,24v-22h44v22z" fill="none" stroke="none" stroke-width="1" stroke-miterlimit="10"></path><path d="M2,24v-22h44v22z" fill="none" stroke="none" stroke-width="1" stroke-miterlimit="10"></path><g id="svg8 2 1" fill="#000000" stroke="none" stroke-width="1" stroke-miterlimit="10" font-family="Roboto, sans-serif" font-weight="normal" font-size="14" text-anchor="start"><g id="layer1 1 1"><g id="g6012 1 1"></g></g><g id="layer2 1 1"></g><g id="g7120 1 1"></g><g id="g6302 1 1"><g id="g6280 1 1"></g></g><g id="g7402 1 1"></g></g><rect x="2" y="2" width="44" height="22" fill="none" stroke="none" stroke-width="1" stroke-miterlimit="10"></rect><path d="M2,24v-22h44v22z" fill="none" stroke="none" stroke-width="1" stroke-miterlimit="10"></path><path d="M2,24v-22h44v22z" fill="none" stroke="none" stroke-width="1" stroke-miterlimit="10"></path><path d="M2,24v-22h44v22z" fill="none" stroke="none" stroke-width="1" stroke-miterlimit="10"></path><path d="M2,24v-22h44v22z" fill="none" stroke="none" stroke-width="1" stroke-miterlimit="10"></path><g id="svg8 3 1" fill="#000000" stroke="none" stroke-width="1" stroke-miterlimit="10" font-family="Roboto, sans-serif" font-weight="normal" font-size="14" text-anchor="start"><g id="layer1 1 1"><g id="g6012 1 1"></g></g><g id="layer2 1 1"></g><g id="g7402 1 1"></g></g><rect x="2" y="2" width="44" height="22" fill="none" stroke="none" stroke-width="1" stroke-miterlimit="10"></rect><path d="M2,24v-22h44v22z" fill="none" stroke="none" stroke-width="1" stroke-miterlimit="10"></path><path d="M2,24v-22h44v22z" fill="none" stroke="none" stroke-width="1" stroke-miterlimit="10"></path><path d="M2,24v-22h44v22z" fill="none" stroke="none" stroke-width="1" stroke-miterlimit="10"></path><path d="M2,24v-22h44v22z" fill="none" stroke="none" stroke-width="1" stroke-miterlimit="10"></path><g id="svg8 4 1" fill="#000000" stroke="none" stroke-width="1" stroke-miterlimit="10" font-family="Roboto, sans-serif" font-weight="normal" font-size="14" text-anchor="start"><g id="layer1 1 1"></g><g id="layer2 1 1"></g><g id="g7402 1 1"></g></g><rect x="2" y="2" width="44" height="22" fill="none" stroke="none" stroke-width="1" stroke-miterlimit="10"></rect><path d="M2,24v-22h44v22z" fill="none" stroke="none" stroke-width="1" stroke-miterlimit="10"></path><path d="M2,24v-22h44v22z" fill="none" stroke="none" stroke-width="1" stroke-miterlimit="10"></path><path d="M2,24v-22h44v22z" fill="none" stroke="none" stroke-width="1" stroke-miterlimit="10"></path><path d="M2,24v-22h44v22z" fill="none" stroke="none" stroke-width="1" stroke-miterlimit="10"></path><g id="svg8 5 1" fill="#000000" stroke="none" stroke-width="1" stroke-miterlimit="10" font-family="Roboto, sans-serif" font-weight="normal" font-size="14" text-anchor="start"><g id="layer1 1 1"></g><g id="layer2 1 1"></g><g id="g7402 1 1"></g></g><rect x="2" y="2" width="44" height="22" fill="none" stroke="none" stroke-width="1" stroke-miterlimit="10"></rect><path d="M2,24v-22h44v22z" fill="none" stroke="none" stroke-width="1" stroke-miterlimit="10"></path><path d="M2,24v-22h44v22z" fill="none" stroke="none" stroke-width="1" stroke-miterlimit="10"></path><path d="M2,24v-22h44v22z" fill="none" stroke="none" stroke-width="1" stroke-miterlimit="10"></path><path d="M2,24v-22h44v22z" fill="none" stroke="none" stroke-width="1" stroke-miterlimit="10"></path><g id="svg8 6 1" fill="#000000" stroke="none" stroke-width="1" stroke-miterlimit="10" font-family="Roboto, sans-serif" font-weight="normal" font-size="14" text-anchor="start"><g id="layer1 1 1"></g><g id="layer2 1 1"></g><g id="g7402 1 1"></g></g><rect x="2" y="2" width="44" height="22" fill="none" stroke="none" stroke-width="1" stroke-miterlimit="10"></rect><path d="M2,24v-22h44v22z" fill="none" stroke="none" stroke-width="1" stroke-miterlimit="10"></path><path d="M2,24v-22h44v22z" fill="none" stroke="none" stroke-width="1" stroke-miterlimit="10"></path><path d="M2,24v-22h44v22z" fill="none" stroke="none" stroke-width="1" stroke-miterlimit="10"></path><path d="M2,24v-22h44v22z" fill="none" stroke="none" stroke-width="1" stroke-miterlimit="10"></path></g></svg>